<svg id="Layer_1" data-name="Layer 1" xmlns="http://www.w3.org/2000/svg" viewBox="0 0 846.7062 323.5354">
  <defs>
    <style>
      .cls-1 {
        font-size: 190px;
      }

      .cls-1, .cls-2, .cls-5 {
        font-family: Arial-ItalicMT, Arial;
        font-style: italic;
      }

      .cls-2 {
        font-size: 40px;
      }

      .cls-3 {
        letter-spacing: -0.0552em;
      }

      .cls-4 {
        letter-spacing: -0.0742em;
      }

      .cls-5 {
        font-size: 90px;
      }

      .cls-6, .cls-7 {
        fill: #fff;
      }

      .cls-7 {
        stroke: #000;
        stroke-miterlimit: 10;
        stroke-width: 8px;
      }
    </style>
  </defs>
  <title>design</title>
  <text class="cls-1" transform="translate(315.1769 227.0621)">I</text>
  <text class="cls-2" transform="translate(381.7062 120.5328)">NNO<tspan class="cls-3" x="88.8867" y="0">V</tspan><tspan class="cls-4" x="113.3594" y="0">A</tspan><tspan x="137.0703" y="0">TIVE</tspan></text>
  <text class="cls-2" transform="translate(359.7062 226.5328)">TER<tspan class="cls-4" x="80" y="0">A</tspan><tspan x="103.7109" y="0">TIVE</tspan></text>
  <text class="cls-2" transform="translate(372.7062 173.5328)">NTENSIVE</text>
  <text class="cls-2" transform="translate(708.7062 156.5328)">ESIGN</text>
  <text class="cls-2" transform="translate(660.7062 226.5328)">ROCESS</text>
  <text class="cls-5" transform="translate(630.1769 226.0621)">I</text>
  <text class="cls-5" transform="translate(644.1769 158.0621)">D</text>
  <g>
    <path class="cls-6" d="M250.2938,199.5849H573.8845V523.12H250.2938Zm167.74,86.8224c-21.9609,0-43.9231.1352-65.8822-.0654-9.0011-.0822-17.2136,2.6061-24.9064,6.611-15.6039,8.1236-27.9111,20.2321-38.1436,34.3362-6.6009,9.0983-12.56,18.68-18.4615,28.2586-2.3169,3.7606-4.8734,7.9954-5.2539,12.2012-.8691,9.6066-.511,19.3284-.5573,29.0039-.0293,6.123,4.7866,12.6664,10.1815,15.285,4.1122,1.9959,8.2964,1.94,12.5709,1.9064,2.5242-.02,4.1686.6465,5.073,3.36A23.8361,23.8361,0,0,0,301.3,429.3811c14.5441,10.5629,32.8878,4.2225,39.0635-11.8613.9417-2.4525,2.0375-3.5785,4.5042-3.5769q32.1338.02,64.2674.0393c2.2562.002,3.5847.814,4.41,3.2723a24.5088,24.5088,0,0,0,16.0226,15.9608c13.2862,4.596,27.524-3.1237,31.9234-16.3463a3.7213,3.7213,0,0,1,3.9792-2.9438c2.691-.0035,5.3854.0283,8.072-.0939,6.92-.3148,11.98-3.6562,15.2639-9.6964,2.4144-4.4411,2.1371-9.3275,2.1475-14.1472.0117-5.3888.32-5.7319,5.86-5.7748,6.0282-.0467,12.057-.0221,18.0847-.0981,3.32-.0418,4.6177-1.4461,4.6546-4.79.0348-3.1506-1.1658-4.4767-4.5044-4.49q-22.2805-.0858-44.5615-.0258c-3.3967.0087-4.9394,1.5708-4.9265,4.5965.0117,2.766,1.9406,4.584,5.0068,4.7069a58.0005,58.0005,0,0,1,7.7165.4058c1.0408.1836,2.578,1.5544,2.6539,2.4859a52.1074,52.1074,0,0,1-.13,9.9864,7.1583,7.1583,0,0,1-4.2153,6.0458c-4.2221,1.9264-8.5842,1.65-12.93.8058-.7726-.15-1.5722-1.3471-1.9359-2.2342-4.2687-10.4106-11.5415-16.6682-23.1065-17.6889-9.0375-.7977-20.9991,5.4455-23.6545,13.9514-1.72,5.5088-4.7785,6.9139-9.7569,6.53-.8547-.0659-1.7212.0322-2.5822.0326-16.578.0092-33.1561.038-49.734.0021a87.0389,87.0389,0,0,1-9.6539-.4958,4.1123,4.1123,0,0,1-2.5644-1.9215c-.9011-1.5367-1.2732-3.3738-2.0862-4.9735-5.9365-11.68-19.3333-15.6428-30.7429-11.6192-7.6926,2.7129-12.5081,8.36-15.3795,15.8511a4.6689,4.6689,0,0,1-1.7015,2.5029,11.0675,11.0675,0,0,1-16.115-9.8506c-.09-7.5344-.7538-15.17.247-22.57.6206-4.5887,3.77-8.8766,6.046-13.16.3867-.7279,2.0963-1.0529,3.1956-1.0548,8.6039-.0147,17.2081.1547,25.8122.15,8.8048-.0054,17.63.2041,26.4091-.3107,11.6884-.6854,17.6545-9.8173,18.2533-19.34.4786-7.612.0876-15.28.0451-22.9229-.0185-3.3133-1.6353-4.9605-4.868-5.1041-2.7021-.12-4.2718,1.3971-4.3981,4.7292-.2635,6.9481-.2014,13.9109-.5648,20.8524-.4287,8.19-4.8315,12.4621-12.8547,12.4078-5.3812-.0364-10.7629-.0062-16.1444-.0016-7.8575.0068-15.7155.0583-23.5721-.0216-1.0764-.0109-2.8391-.4337-3.0574-1.08-.3311-.98.2325-2.4105.75-3.4891a22.657,22.657,0,0,1,2.2477-3.1147c10.4483-14.599,22.3176-27.71,37.9923-36.966,6.5555-3.8709,13.5568-6.7023,21.0785-6.9158,15.2439-.4327,30.5077-.1663,45.7633-.1916q24.3339-.04,48.6677-.0862c13.9563-.0225,27.9128-.0091,41.8688-.0777,3.6353-.0179,4.8461-1.3737,4.8052-4.9078-.0382-3.2971-1.2406-4.3545-4.9023-4.354Q452.752,286.4039,418.0343,286.4073Zm84.5325,66.3934v.0786q-7.2618,0-14.5236,0-20.01.01-40.0205.0314c-4.2279.01-6.0029,2.8631-4.4733,6.636,1.0546,2.6015,3.0826,2.6644,5.2719,2.6686q18.2308.0342,36.4618.047,35.1714-.0113,70.3429-.0732c4.0609-.01,5.8975-1.6366,5.8858-4.8268-.0115-3.0984-1.9336-4.5607-6.0157-4.5612Q529.0314,352.7987,502.5668,352.8007Zm-10.2977-34.6614v.0269c14.5215,0,29.0431-.0284,43.5644.0244,2.8547.01,4.7815-.9421,5.3855-3.9.7275-3.5626-1.7671-5.9253-6.4191-5.9257q-42.1128-.0039-84.2258.0581c-1.4886.0025-3.2139-.0474-4.4017.6524-1.3219.7788-2.8362,2.3017-3.01,3.6611a5.7352,5.7352,0,0,0,1.9534,4.3476c1.0716.89,3.0016,1.0071,4.5561,1.0147C463.871,318.1679,478.07,318.1393,492.2691,318.1393Zm-24.3246,22.3,0-.1728q13.0558,0,26.1116-.004c5.4789-.0093,10.9591.0044,16.4361-.1125a4.53,4.53,0,0,0,4.8343-4.5783c.1825-2.626-1.3353-4.203-3.8353-4.7684a16.2609,16.2609,0,0,0-3.5033-.4125c-9.5354-.0317-19.071-.0072-28.6065-.0191-12.2351-.0152-24.47-.0852-36.7054-.0577q-9.0157.02-18.03.329c-3.0217.1047-4.4674,2.26-4.4561,4.9314.0114,2.6813,1.9128,4.25,4.581,4.5469a56.4273,56.4273,0,0,0,6.1142.3049Q449.4149,340.4652,467.9445,340.4389Z" transform="translate(-250.2938 -199.5849)"/>
    <path d="M418.0343,286.4039q34.7176-.005,69.4352-.005c3.6617-.0005,4.8641,1.0569,4.9023,4.354.0409,3.5341-1.17,4.89-4.8052,4.9078-13.956.0686-27.9125.0552-41.8688.0777q-24.3339.039-48.6677.0862c-15.2556.0253-30.5194-.2411-45.7633.1916-7.5217.2135-14.523,3.0449-21.0785,6.9158-15.6747,9.2558-27.544,22.367-37.9923,36.966a22.657,22.657,0,0,0-2.2477,3.1147c-.5178,1.0786-1.0814,2.5088-.75,3.4891.2183.6464,1.981,1.0692,3.0574,1.08,7.8566.08,15.7146.0284,23.5721.0216,5.3815-.0046,10.7632-.0348,16.1444.0016,8.0232.0543,12.426-4.2177,12.8547-12.4078.3634-6.9415.3013-13.9043.5648-20.8524.1263-3.3321,1.696-4.8493,4.3981-4.7292,3.2327.1436,4.85,1.7908,4.868,5.1041.0425,7.6429.4335,15.3109-.0451,22.9229-.5988,9.5229-6.5649,18.6548-18.2533,19.34-8.7792.5148-17.6043.3053-26.4091.3107-8.6041.0052-17.2083-.1642-25.8122-.15-1.0993.0019-2.8089.3269-3.1956,1.0548-2.276,4.2838-5.4254,8.5717-6.046,13.16-1.0008,7.4-.3366,15.0354-.247,22.57a11.0675,11.0675,0,0,0,16.115,9.8506,4.6689,4.6689,0,0,0,1.7015-2.5029c2.8714-7.4912,7.6869-13.1382,15.3795-15.8511,11.41-4.0236,24.8064-.0613,30.7429,11.6192.813,1.6,1.1851,3.4368,2.0862,4.9735a4.1123,4.1123,0,0,0,2.5644,1.9215,87.0389,87.0389,0,0,0,9.6539.4958c16.5779.0359,33.156.0071,49.734-.0021.861,0,1.7275-.0985,2.5822-.0326,4.9784.3837,8.0371-1.0214,9.7569-6.53,2.6554-8.5059,14.617-14.7491,23.6545-13.9514,11.565,1.0207,18.8378,7.2783,23.1065,17.6889.3637.8871,1.1633,2.0841,1.9359,2.2342,4.3457.8442,8.7078,1.1206,12.93-.8058a7.1583,7.1583,0,0,0,4.2153-6.0458,52.1074,52.1074,0,0,0,.13-9.9864c-.0759-.9315-1.6131-2.3023-2.6539-2.4859a58.0005,58.0005,0,0,0-7.7165-.4058c-3.0662-.1229-4.9951-1.9409-5.0068-4.7069-.0129-3.0257,1.53-4.5878,4.9265-4.5965q22.2807-.0576,44.5615.0258c3.3386.0129,4.5392,1.339,4.5044,4.49-.0369,3.3439-1.3343,4.7482-4.6546,4.79-6.0277.076-12.0565.0514-18.0847.0981-5.5391.0429-5.8479.386-5.86,5.7748-.01,4.82.2669,9.7061-2.1475,14.1472-3.2837,6.04-8.3438,9.3816-15.2639,9.6964-2.6866.1222-5.381.09-8.072.0939a3.7213,3.7213,0,0,0-3.9792,2.9438c-4.3994,13.2226-18.6372,20.9423-31.9234,16.3463a24.5088,24.5088,0,0,1-16.0226-15.9608c-.8252-2.4583-2.1537-3.27-4.41-3.2723q-32.1336-.0282-64.2674-.0393c-2.4667-.0016-3.5625,1.1244-4.5042,3.5769-6.1757,16.0838-24.5194,22.4242-39.0635,11.8613a23.8361,23.8361,0,0,1-8.6453-12.0768c-.9044-2.7136-2.5488-3.38-5.073-3.36-4.2745.0331-8.4587.0895-12.5709-1.9064-5.3949-2.6186-10.2108-9.162-10.1815-15.285.0463-9.6755-.3118-19.3973.5573-29.0039.38-4.2058,2.937-8.4406,5.2539-12.2012,5.901-9.5783,11.8606-19.16,18.4615-28.2586,10.2325-14.1041,22.54-26.2126,38.1436-34.3362,7.6928-4.0049,15.9053-6.6932,24.9064-6.611C374.1112,286.5425,396.0734,286.4073,418.0343,286.4039Zm19.1282,107.5632c-8.4409-.0115-14.9834,6.7393-14.9956,15.473-.0108,7.7553,7.2991,15.1493,14.9319,15.1037,8.3743-.05,15.5777-6.894,15.5334-15.1872C452.587,400.89,445.9976,393.661,437.1625,393.9671Zm-120.8387-.0437a15.2931,15.2931,0,1,0,15.5229,15.7645C331.9793,401.07,326.4308,393.9757,316.3238,393.9234Z" transform="translate(-250.2938 -199.5849)"/>
    <path d="M502.5668,352.8007q26.4646,0,52.9293.0008c4.0821.0005,6.0042,1.4628,6.0157,4.5612.0117,3.19-1.8249,4.8168-5.8858,4.8268q-35.1714.0869-70.3429.0732-18.231.0059-36.4618-.047c-2.1893-.0042-4.2173-.0671-5.2719-2.6686-1.53-3.7729.2454-6.6258,4.4733-6.636q20.01-.0486,40.0205-.0314,7.2618-.0034,14.5236,0Z" transform="translate(-250.2938 -199.5849)"/>
    <path d="M492.2691,318.1393c-14.199,0-28.3981.0286-42.5968-.0409-1.5545-.0076-3.4845-.1246-4.5561-1.0147a5.7352,5.7352,0,0,1-1.9534-4.3476c.1734-1.3594,1.6877-2.8823,3.01-3.6611,1.1878-.7,2.9131-.65,4.4017-.6524q42.113-.07,84.2258-.0581c4.652,0,7.1466,2.3631,6.4191,5.9257-.604,2.9583-2.5308,3.9107-5.3855,3.9-14.5213-.0528-29.0429-.0244-43.5644-.0244Z" transform="translate(-250.2938 -199.5849)"/>
    <path d="M467.9445,340.4389q-18.53,0-37.0593-.0131a56.4273,56.4273,0,0,1-6.1142-.3049c-2.6682-.2971-4.57-1.8656-4.581-4.5469-.0113-2.671,1.4344-4.8267,4.4561-4.9314q9.01-.312,18.03-.329c12.235-.0275,24.47.0425,36.7054.0577,9.5355.0119,19.0711-.0126,28.6065.0191a16.2609,16.2609,0,0,1,3.5033.4125c2.5.5654,4.0178,2.1424,3.8353,4.7684a4.53,4.53,0,0,1-4.8343,4.5783c-5.477.1169-10.9572.1032-16.4361.1125q-13.0557.0222-26.1116.004Z" transform="translate(-250.2938 -199.5849)"/>
    <path class="cls-6" d="M437.1625,393.9671c8.8351-.3061,15.4245,6.9226,15.47,15.3895.0443,8.2932-7.1591,15.1371-15.5334,15.1872-7.6328.0456-14.9427-7.3484-14.9319-15.1037C422.1791,400.7064,428.7216,393.9556,437.1625,393.9671Z" transform="translate(-250.2938 -199.5849)"/>
    <path class="cls-6" d="M316.3238,393.9234c10.107.0523,15.6555,7.1463,15.5229,15.7645a15.222,15.222,0,1,1-15.5229-15.7645Z" transform="translate(-250.2938 -199.5849)"/>
  </g>
  <line class="cls-7" x1="63.7062" y1="231.4151" x2="846.7062" y2="231.4151"/>
</svg>
